<?xml version="1.0" encoding="utf-8"?>
<!-- Generator: Adobe Illustrator 24.1.2, SVG Export Plug-In . SVG Version: 6.00 Build 0)  -->
<svg version="1.1" id="Layer_1" xmlns="http://www.w3.org/2000/svg" xmlns:xlink="http://www.w3.org/1999/xlink" x="0px" y="0px"
	 viewBox="0 0 72 48" style="enable-background:new 0 0 72 48;" xml:space="preserve">
<g>
	<path d="M40.2,12.2c1.1-1.1,1.8-2.6,1.8-4.3c0-3.4-2.7-6.1-6.1-6.1c-2.1,0-4,1.1-5.1,2.7C30.5,4.9,6.2,34.8,6,35.1
		c-1.1,1.1-1.8,2.6-1.8,4.3c0,3.4,2.7,6.1,6.1,6.1c2.1,0,4-1.1,5.1-2.7C15.7,42.5,39.9,12.6,40.2,12.2z"/>
	<path d="M54.2,26.4c1.1-1.1,1.8-2.6,1.8-4.3c0-3.4-2.7-6.1-6.1-6.1c-2.1,0-4,1.1-5.1,2.7c-0.3,0.3-13,16-13.3,16.3
		c-1.1,1.1-1.8,2.6-1.8,4.3c0,3.4,2.7,6.1,6.1,6.1c2.1,0,4-1.1,5.1-2.7C41.2,42.5,54,26.8,54.2,26.4z"/>
	<g>
		<path d="M67.5,7.9c0,3.4-2.7,6.1-6.1,6.1c-3.4,0-6.1-2.7-6.1-6.1c0-3.4,2.7-6.1,6.1-6.1C64.8,1.8,67.5,4.6,67.5,7.9z"/>
	</g>
	<g>
		<path d="M16.4,7.9c0,3.4-2.7,6.1-6.1,6.1c-3.4,0-6.1-2.7-6.1-6.1c0-3.4,2.7-6.1,6.1-6.1C13.7,1.8,16.4,4.6,16.4,7.9z"/>
	</g>
</g>
</svg>
